<svg width="30" height="30" viewBox="0 0 30 30" fill="none" xmlns="http://www.w3.org/2000/svg">
<path d="M5.625 9.375V20.375C5.625 22.2606 5.625 23.2034 6.21079 23.7892C6.79657 24.375 7.73938 24.375 9.625 24.375H20.375C22.2606 24.375 23.2034 24.375 23.7892 23.7892C24.375 23.2034 24.375 22.2606 24.375 20.375V9.375M5.625 9.375H24.375M5.625 9.375H3.625C3.3893 9.375 3.27145 9.375 3.19822 9.30178C3.125 9.22855 3.125 9.1107 3.125 8.875V8.625C3.125 7.21079 3.125 6.50368 3.56434 6.06434C4.00368 5.625 4.71079 5.625 6.125 5.625H23.875C25.2892 5.625 25.9963 5.625 26.4357 6.06434C26.875 6.50368 26.875 7.21079 26.875 8.625V8.875C26.875 9.1107 26.875 9.22855 26.8018 9.30178C26.7286 9.375 26.6107 9.375 26.375 9.375H24.375" stroke="#222222"/>
<path d="M11.875 18.125H18.125" stroke="#222222" stroke-linecap="round"/>
</svg>
