<svg xmlns="http://www.w3.org/2000/svg" version="1.1" xmlns:xlink="http://www.w3.org/1999/xlink" xmlns:svgjs="http://svgjs.com/svgjs" width="25" height="25" x="0" y="0" viewBox="0 0 330 330" style="enable-background:new 0 0 512 512" xml:space="preserve" class=""><g><path d="M165 0C74.019 0 0 74.019 0 165s74.019 165 165 165 165-74.019 165-165S255.981 0 165 0zm0 300c-74.44 0-135-60.561-135-135S90.56 30 165 30s135 60.561 135 135-60.561 135-135 135z" fill="#000000" data-original="#000000" class=""></path><path d="m226.872 106.664-84.854 84.853-38.89-38.891c-5.857-5.857-15.355-5.858-21.213-.001-5.858 5.858-5.858 15.355 0 21.213l49.496 49.498a15 15 0 0 0 10.606 4.394h.001c3.978 0 7.793-1.581 10.606-4.393l95.461-95.459c5.858-5.858 5.858-15.355 0-21.213-5.858-5.858-15.355-5.859-21.213-.001z" fill="#000000" data-original="#000000" class=""></path></g></svg>