<svg width="30" height="31" viewBox="0 0 30 31" fill="none" xmlns="http://www.w3.org/2000/svg">
<path d="M4.375 6.207H6.69132C7.38348 6.207 7.72956 6.207 7.99077 6.39425C8.25199 6.5815 8.36312 6.90925 8.5854 7.56474L9.375 9.89335" stroke="white" stroke-linecap="round"/>
<path d="M21.875 22.1812H10.0447C9.57467 22.1812 9.33967 22.1812 9.17069 22.1182C8.78969 21.9761 8.53263 21.6175 8.52046 21.2111C8.51507 21.0308 8.59053 20.8083 8.74146 20.3632V20.3632C8.90719 19.8744 8.99006 19.63 9.11504 19.431C9.39373 18.9873 9.83542 18.6707 10.3451 18.5493C10.5737 18.4948 10.8318 18.4948 11.3479 18.4948H18.125" stroke="white" stroke-linecap="round" stroke-linejoin="round"/>
<path d="M18.3235 18.4948H13.2447C11.9737 18.4948 11.3382 18.4948 10.8391 18.1679C10.34 17.841 10.086 17.2585 9.57804 16.0934L8.70561 14.0923C7.87942 12.1972 7.46633 11.2497 7.91048 10.5715C8.35464 9.89334 9.3883 9.89334 11.4556 9.89334H20.4111C22.7274 9.89334 23.8855 9.89334 24.3182 10.6453C24.7508 11.3972 24.1688 12.3985 23.0047 14.401L21.7816 16.505C21.2171 17.4763 20.9348 17.9619 20.4717 18.2283C20.0086 18.4948 19.4469 18.4948 18.3235 18.4948Z" stroke="white" stroke-linecap="round"/>
<ellipse cx="21.25" cy="25.2531" rx="1.25" ry="1.22878" fill="white"/>
<ellipse cx="11.25" cy="25.2531" rx="1.25" ry="1.22878" fill="white"/>
</svg>
