<svg xmlns="http://www.w3.org/2000/svg" version="1.1" xmlns:xlink="http://www.w3.org/1999/xlink" xmlns:svgjs="http://svgjs.com/svgjs" width="30" height="30" x="0" y="0" viewBox="0 0 48 48" style="enable-background:new 0 0 512 512" xml:space="preserve" fill-rule="evenodd" class=""><g><path d="M14.519 13.5h-2.657a3.5 3.5 0 0 0-3.491 3.251l-1.714 24a3.5 3.5 0 0 0 3.491 3.749h27.704a3.502 3.502 0 0 0 3.491-3.749l-1.714-24a3.5 3.5 0 0 0-3.491-3.251H33.5V13A9.5 9.5 0 0 0 24 3.5c-5.055 0-9.727 4.026-9.5 9.5l.019.5zm18.981 3V24a1.5 1.5 0 0 1-3 0v-7.5h-13V24a1.5 1.5 0 0 1-3 0s.13-3.505.087-7.5h-2.725a.5.5 0 0 0-.498.464l-1.715 24a.5.5 0 0 0 .499.536h27.704a.502.502 0 0 0 .499-.536l-1.715-24a.5.5 0 0 0-.498-.464zm-3-3V13a6.5 6.5 0 1 0-13 0v.5z" fill="#ffffff" data-original="#000000" class="" opacity="1"></path></g></svg>