<svg width="30" height="30" viewBox="0 0 30 30" fill="none" xmlns="http://www.w3.org/2000/svg">
<path d="M15.773 4.58113L23.6327 6.67704C24.0704 6.79378 24.375 7.19023 24.375 7.64328V16.1639C24.375 18.17 23.3724 20.0434 21.7032 21.1562L15.5547 25.2552C15.2188 25.4791 14.7812 25.4791 14.4453 25.2552L8.2968 21.1562C6.62761 20.0434 5.625 18.17 5.625 16.1639V7.64328C5.625 7.19023 5.92958 6.79378 6.36734 6.67704L14.227 4.58113C14.7335 4.44607 15.2665 4.44607 15.773 4.58113Z" stroke="#222222" stroke-linecap="round"/>
<path d="M11.875 14.375L14.1982 16.6982C14.2959 16.7959 14.4541 16.7959 14.5518 16.6982L18.75 12.5" stroke="#222222" stroke-linecap="round"/>
</svg>
