<svg xmlns="http://www.w3.org/2000/svg" version="1.1" xmlns:xlink="http://www.w3.org/1999/xlink" xmlns:svgjs="http://svgjs.com/svgjs" width="25" height="25" x="0" y="0" viewBox="0 0 32 32" style="enable-background:new 0 0 512 512" xml:space="preserve" class=""><g><path d="M10.399 21.632c-2.135 0-3.871 1.736-3.871 3.871s1.736 3.871 3.871 3.871 3.872-1.736 3.872-3.871-1.737-3.871-3.872-3.871zm0 6.742c-1.583 0-2.871-1.288-2.871-2.871s1.288-2.871 2.871-2.871c1.584 0 2.872 1.288 2.872 2.871s-1.288 2.871-2.872 2.871zM25.754 21.632c-2.135 0-3.872 1.736-3.872 3.871s1.737 3.871 3.872 3.871 3.871-1.736 3.871-3.871-1.736-3.871-3.871-3.871zm0 6.742c-1.584 0-2.872-1.288-2.872-2.871s1.288-2.871 2.872-2.871c1.583 0 2.871 1.288 2.871 2.871s-1.288 2.871-2.871 2.871z" fill="#000000" data-original="#000000" class=""></path><path d="M29.854 21.398a5.767 5.767 0 0 0-4.104-1.697c-2.511 0-4.648 1.613-5.448 3.856l-1.381-.551 1.015-4.786a.501.501 0 0 0-.252-.544l-3.312-1.786.031-.207c.713.293 1.569.493 2.639.493.159 0 .562-.03.596-.039a1.83 1.83 0 0 0 1.114.383c.054 0 .105-.011.157-.016l.838 2.444a6.909 6.909 0 0 0-1.64 1.415.494.494 0 0 0 .061.705c.203.158.606.057.705-.061a5.861 5.861 0 0 1 1.715-1.39.5.5 0 0 0 .238-.604l-.981-2.86c.276-.204.494-.481.623-.805h.766l2.695 3.535c.185.24.556.204.7.095a.498.498 0 0 0 .095-.7l-2.845-3.733a.5.5 0 0 0-.397-.197h-.913a1.85 1.85 0 0 0-1.817-1.529c-.501 0-.954.202-1.287.525-.017-.002-2.427.281-3.309-1.94a3.182 3.182 0 0 0-.552-.875l.998.001h.003c.598 0 1.16-.233 1.584-.656.424-.424.657-.987.657-1.586V5.713h.834a.5.5 0 0 0 0-1h-4.505a.5.5 0 0 0-.5.5v4.264c-1.392-.244-2.455-1.449-2.455-2.897a2.958 2.958 0 0 1 2.96-2.95c.562 0 1.101.156 1.56.451a.499.499 0 1 0 .541-.841 3.873 3.873 0 0 0-2.101-.61 3.96 3.96 0 0 0-3.96 3.95c0 1.3.645 2.449 1.627 3.169a10.12 10.12 0 0 0-2.653 3.727v-2.133a.5.5 0 0 0-.5-.5H2.5a.5.5 0 0 0-.5.5v6.536a.5.5 0 0 0 .5.5h3.465v1.822a.5.5 0 0 0 .5.5h.691a5.798 5.798 0 0 0-.853.711.5.5 0 0 0 .711.703 4.724 4.724 0 0 1 3.383-1.414 4.807 4.807 0 0 1 4.802 4.801c0 .382.275.488.5.501h4.757l.005-.001a.5.5 0 0 0 .5-.5c0-2.647 2.148-4.801 4.79-4.801 1.284 0 2.49.499 3.396 1.404a.5.5 0 0 0 .707-.707zm-9.102-7.578a.85.85 0 1 1-.001 1.701.85.85 0 0 1 .001-1.701zm-5.078-8.107h2.171v2.576c0 .332-.129.644-.364.878a1.233 1.233 0 0 1-.877.363h-.93zM3 14.334h4.807a.5.5 0 0 0 0-1H3v-1.491h6.194v5.536H3zm7.4 5.367H6.964v-1.322l4.057.005c.023 0 .297.113.424.162l4.428 1.566-.34 2.701a5.806 5.806 0 0 0-5.133-3.112zm6.186-.397-4.794-1.696a1.862 1.862 0 0 1-1.171-2.082c.485-2.548 2.007-4.217 2.768-4.915 1.271.022 1.604.691 1.868 1.232.813 1.67 1.781 2.325 3.682 2.462-.058.297-.043.576.037.855-2.598-.024-3.819-1.281-4.375-2.383a.5.5 0 0 0-.893.451c.296.587.84 1.361 1.757 1.97l-.069.466h-1.124a.5.5 0 0 0 0 1H15.7l3.18 1.715-1.024 4.832a.5.5 0 0 0 .304.568l1.888.754c-.026.155-.049.31-.062.469h-3.721l.65-5.165a.5.5 0 0 0-.329-.533z" fill="#000000" data-original="#000000" class=""></path></g></svg>