<svg xmlns="http://www.w3.org/2000/svg" version="1.1" xmlns:xlink="http://www.w3.org/1999/xlink" xmlns:svgjs="http://svgjs.com/svgjs" width="25" height="25" x="0" y="0" viewBox="0 0 32 32" style="enable-background:new 0 0 512 512" xml:space="preserve" class=""><g><path d="M3.556 7.401v6.54C3.555 20.876 7.903 27.21 14.378 29.7a4.512 4.512 0 0 0 3.245 0l.97-.374c5.985-2.302 9.852-8.09 9.851-14.747V7.401a1 1 0 0 0-.96-.999c-3.595-.14-7.26-1.556-10.894-4.21a1.002 1.002 0 0 0-1.18 0c-3.635 2.654-7.3 4.07-10.893 4.21a1 1 0 0 0-.961 1zm2 .936c3.484-.33 6.99-1.708 10.444-4.11 3.453 2.402 6.96 3.78 10.444 4.11v6.241c.001 5.822-3.362 10.878-8.569 12.88l-.97.374a2.514 2.514 0 0 1-1.81 0c-5.706-2.195-9.54-7.777-9.54-13.89V8.336z" fill="#000000" data-original="#000000" class=""></path><path d="M13.952 20.13a1 1 0 0 0 1.414 0l6.22-6.219a1 1 0 1 0-1.414-1.414l-5.513 5.513-2.83-2.832a1 1 0 1 0-1.415 1.414z" fill="#000000" data-original="#000000" class=""></path></g></svg>