<svg xmlns="http://www.w3.org/2000/svg" version="1.1" xmlns:xlink="http://www.w3.org/1999/xlink" xmlns:svgjs="http://svgjs.com/svgjs" width="12" height="12" x="0" y="0" viewBox="0 0 24 24" style="enable-background:new 0 0 512 512" xml:space="preserve" class=""><g><path d="M17 12c0 .2-.06.4-.17.55l-5 7.5c-.18.27-.48.45-.83.45H8c-.55 0-1-.45-1-1 0-.2.06-.4.17-.55L11.8 12 7.17 5.05A.944.944 0 0 1 7 4.5c0-.55.45-1 1-1h3c.35 0 .65.18.83.45l5 7.5c.11.15.17.35.17.55z" fill="rgba(0,0,0,0.6)" data-original="#000000" class=""></path></g></svg>