<svg width="30" height="30" viewBox="0 0 30 30" fill="none" xmlns="http://www.w3.org/2000/svg">
<path d="M18.125 26.25V19.75C18.125 19.1977 17.6773 18.75 17.125 18.75H12.875C12.3227 18.75 11.875 19.1977 11.875 19.75V26.25" stroke="#222222" stroke-linecap="round" stroke-linejoin="round"/>
<path d="M6.25 13.75V22.25C6.25 24.1356 6.25 25.0784 6.83579 25.6642C7.42157 26.25 8.36438 26.25 10.25 26.25H19.75C21.6356 26.25 22.5784 26.25 23.1642 25.6642C23.75 25.0784 23.75 24.1356 23.75 22.25V13.75" stroke="#222222"/>
<path d="M5.87127 5.26493C6.05316 4.53737 6.1441 4.17359 6.41536 3.96179C6.68663 3.75 7.0616 3.75 7.81155 3.75H22.1884C22.9384 3.75 23.3134 3.75 23.5846 3.96179C23.8559 4.17359 23.9468 4.53737 24.1287 5.26493L25.7279 11.6617C25.9205 12.432 26.0168 12.8171 25.9005 13.1144C25.8295 13.2957 25.7072 13.4523 25.5486 13.5651C25.2884 13.75 24.8857 13.75 24.0801 13.75V13.75C23.0094 13.75 22.4741 13.75 22.0531 13.5405C21.764 13.3966 21.5141 13.1849 21.3246 12.9234C21.0488 12.5426 20.962 12.022 20.7885 10.9807V10.9807C20.7398 10.6887 20.7155 10.5427 20.6714 10.5197C20.6423 10.5045 20.6077 10.5045 20.5786 10.5197C20.5345 10.5427 20.5102 10.6887 20.4615 10.9807L20.3596 11.5923C20.2831 12.0516 20.2448 12.2813 20.1706 12.4728C19.9254 13.1053 19.3763 13.5704 18.7121 13.7083C18.5111 13.75 18.2782 13.75 17.8125 13.75V13.75C17.3468 13.75 17.1139 13.75 16.9129 13.7083C16.2487 13.5704 15.6996 13.1053 15.4544 12.4728C15.3802 12.2813 15.3419 12.0516 15.2654 11.5923L15.1635 10.9807C15.1148 10.6887 15.0905 10.5427 15.0464 10.5197C15.0173 10.5045 14.9827 10.5045 14.9536 10.5197C14.9095 10.5427 14.8852 10.6887 14.8365 10.9807L14.7346 11.5923C14.6581 12.0516 14.6198 12.2813 14.5456 12.4728C14.3004 13.1053 13.7513 13.5704 13.0871 13.7083C12.8861 13.75 12.6532 13.75 12.1875 13.75V13.75C11.7218 13.75 11.4889 13.75 11.2879 13.7083C10.6237 13.5704 10.0746 13.1053 9.82943 12.4728C9.75522 12.2813 9.71694 12.0516 9.64038 11.5923L9.53845 10.9807C9.48979 10.6887 9.46546 10.5427 9.42136 10.5197C9.39232 10.5045 9.35768 10.5045 9.32864 10.5197C9.28454 10.5427 9.26021 10.6887 9.21155 10.9807V10.9807C9.03801 12.022 8.95124 12.5426 8.67539 12.9234C8.48593 13.1849 8.23597 13.3966 7.94687 13.5405C7.52593 13.75 6.99058 13.75 5.91989 13.75V13.75C5.11435 13.75 4.71157 13.75 4.4514 13.5651C4.29275 13.4523 4.17046 13.2957 4.09953 13.1144C3.98322 12.8171 4.0795 12.432 4.27207 11.6617L5.87127 5.26493Z" stroke="#222222"/>
</svg>
