<svg width="30" height="30" viewBox="0 0 30 30" fill="none" xmlns="http://www.w3.org/2000/svg">
<path d="M12.6797 8.28448C13.663 5.83323 14.1546 4.6076 15 4.6076C15.8454 4.6076 16.337 5.83323 17.3203 8.28448L17.3661 8.39862C17.9216 9.78346 18.1993 10.4759 18.7654 10.8967C19.3314 11.3176 20.0745 11.3841 21.5606 11.5172L21.8293 11.5413C24.2616 11.7591 25.4777 11.868 25.7379 12.6418C25.9982 13.4155 25.095 14.2372 23.2887 15.8805L22.6859 16.429C21.7715 17.2609 21.3143 17.6769 21.1012 18.222C21.0614 18.3237 21.0284 18.4279 21.0023 18.5339C20.8622 19.1022 20.9961 19.7057 21.2638 20.9125L21.3472 21.2881C21.8393 23.5061 22.0853 24.615 21.6557 25.0934C21.4952 25.2721 21.2866 25.4008 21.0548 25.464C20.4345 25.6333 19.5539 24.9157 17.7928 23.4806C16.6363 22.5382 16.0581 22.0671 15.3942 21.9611C15.133 21.9194 14.8669 21.9194 14.6058 21.9611C13.9419 22.0671 13.3637 22.5382 12.2072 23.4806C10.446 24.9157 9.56545 25.6333 8.9452 25.464C8.71343 25.4008 8.50479 25.2721 8.34426 25.0934C7.91466 24.615 8.16071 23.5061 8.6528 21.2881L8.73615 20.9125C9.00391 19.7057 9.13779 19.1022 8.99772 18.5339C8.97159 18.4279 8.93855 18.3237 8.8988 18.222C8.6857 17.6769 8.22851 17.2609 7.31413 16.429L6.71128 15.8805C4.90497 14.2372 4.00182 13.4155 4.26204 12.6418C4.52227 11.868 5.7384 11.7591 8.17067 11.5413L8.43934 11.5172C9.92548 11.3841 10.6686 11.3176 11.2346 10.8967C11.8007 10.4759 12.0784 9.78346 12.6339 8.39862L12.6797 8.28448Z" stroke="#222222"/>
</svg>
