<svg width="30" height="32" viewBox="0 0 30 32" fill="none" xmlns="http://www.w3.org/2000/svg">
<rect x="18.75" y="17.1258" width="7.5" height="5.26948" fill="#7E869E" fill-opacity="0.25"/>
<path d="M25 9.2216V5.26949H7.04343C5.22452 5.26949 3.75 6.744 3.75 8.56291C3.75 10.3818 5.22452 11.8563 7.04343 11.8563H22.5L25 9.2216Z" fill="#7E869E" fill-opacity="0.25"/>
<path d="M3.75001 8.56291V8.56291C3.75001 8.29043 3.75001 8.15419 3.75886 8.03925C3.87241 6.56402 5.04455 5.39187 6.51978 5.27833C6.63472 5.26948 6.77096 5.26948 7.04344 5.26948L24.059 5.26948C24.4733 5.26948 24.6804 5.26948 24.8193 5.38471C24.8431 5.40446 24.865 5.42638 24.8848 5.45017C25 5.58903 25 5.79617 25 6.21046V6.21046C25 8.69616 25 9.939 24.3086 10.7722C24.1901 10.9149 24.0586 11.0464 23.9158 11.1649C23.0827 11.8563 21.8398 11.8563 19.3541 11.8563H18.75M3.75001 8.56291V8.56291C3.75001 8.83538 3.75001 8.97162 3.75886 9.08656C3.87241 10.5618 5.04455 11.7339 6.51978 11.8475C6.63472 11.8563 6.77096 11.8563 7.04343 11.8563L24.25 11.8563C25.1928 11.8563 25.6642 11.8563 25.9571 12.1492C26.25 12.4421 26.25 12.9135 26.25 13.8563L26.25 17.1258M3.75001 8.56291L3.75001 23.6648C3.75001 25.5504 3.75001 26.4932 4.3358 27.079C4.92158 27.6648 5.86439 27.6648 7.75001 27.6648L24.25 27.6648C25.1928 27.6648 25.6642 27.6648 25.9571 27.3719C26.25 27.079 26.25 26.6076 26.25 25.6648L26.25 22.3953M26.25 22.3953H20.75C19.8072 22.3953 19.3358 22.3953 19.0429 22.1024C18.75 21.8095 18.75 21.3381 18.75 20.3953V19.1258C18.75 18.183 18.75 17.7116 19.0429 17.4187C19.3358 17.1258 19.8072 17.1258 20.75 17.1258H26.25M26.25 22.3953L26.25 17.1258" stroke="#222222" stroke-width="1.2"/>
</svg>
